<svg width="700" height="300" viewBox="0 0 700 300" fill="none" xmlns="http://www.w3.org/2000/svg">
<path d="M275.449 150C275.593 169.444 260.718 176.389 240.499 176.389C220.28 176.389 205.55 169.444 205.405 150C205.261 130.556 220.28 123.611 240.499 123.611C260.718 123.611 275.304 130.556 275.449 150Z" fill="black"/>
<path fill-rule="evenodd" clip-rule="evenodd" d="M0 0H300L400 151.5L300 300H0V0ZM107.381 200C80.3741 200 59 183.333 59 150C59 119.444 78.9299 100 114.602 100C144.93 100 160.238 113.194 165.437 134.722H141.464C136.698 125.972 131.21 122.222 114.602 122.222C93.083 122.222 83.8401 129.167 83.8401 150C83.8401 170.833 93.083 177.917 114.602 177.917C128.282 177.917 135.81 175.015 139.456 165.278H108.825V145H167.17V200H146.951V176.594C139.875 192.96 126.434 200 107.381 200ZM180.854 150C180.854 180.556 202.95 200 240.499 200C278.048 200 300 180.556 300 150C300 119.444 278.048 100 240.499 100C202.95 100 180.854 119.444 180.854 150Z" fill="black"/>
<path fill-rule="evenodd" clip-rule="evenodd" d="M700 0H400V300H700V0ZM513.601 200V100H489V200H513.601ZM625 124.286V100H529.491V124.286H564.945V200H589.546V124.286H625Z" fill="black"/>
</svg>
